Coordinates
version=1
nRows=19
nColumns=36
inDegrees=yes

Units are S.I. units (second, meters, Newtons, ...)
If the header above contains a line with 'inDegrees', this indicates whether rotational values are in degrees (yes) or radians (no).

endheader
time	pelvis_tilt	pelvis_list	pelvis_rotation	pelvis_tx	pelvis_ty	pelvis_tz	hip_flexion_r	hip_adduction_r	hip_rotation_r	knee_angle_r	knee_angle_r_beta	ankle_angle_r	subtalar_angle_r	mtp_angle_r	hip_flexion_l	hip_adduction_l	hip_rotation_l	knee_angle_l	knee_angle_l_beta	ankle_angle_l	subtalar_angle_l	mtp_angle_l	lumbar_extension	lumbar_bending	lumbar_rotation	arm_flex_r	arm_add_r	arm_rot_r	elbow_flex_r	pro_sup_r	arm_flex_l	arm_add_l	arm_rot_l	elbow_flex_l	pro_sup_l
      0.00000000	      5.86724656	     -1.68285297	     -3.71443641	      1.66848601	      0.97028563	      0.12645752	     -4.67451547	      4.39336246	      7.80454176	      6.94157872	      0.12115340	      8.78635731	     -9.80240752	     -6.39064247	     -3.59127775	     -3.62613100	     -0.10873954	     18.06689548	      0.31532681	     12.05781202	    -11.18695071	     -6.39064247	    -12.31035705	      4.11864847	     -4.07412920	     54.92733860	      4.41590529	     56.80452690	    114.60538066	     73.69164716	     49.25201349	      2.54165090	     66.38875988	    117.09272063	     81.09202963
      0.01666670	      6.58139163	     -2.18680264	     -3.55204965	      1.67182066	      0.96869408	      0.12210826	     -5.58504164	      4.90193004	      8.48008311	      7.04759988	      0.12300382	     10.83227623	     -9.20517151	     -6.69699281	     -4.79694003	     -4.18571015	     -0.48569623	     16.51811151	      0.28829543	     14.10152021	    -11.00614349	     -6.69699281	    -14.39407801	      5.30239556	     -2.02003210	     59.20367264	      1.41886974	     64.78869764	    123.28449829	     89.75702425	     51.58600978	      3.11392385	     65.45422296	    121.31964268	     97.09431996
      0.03333330	      7.31604044	     -2.51324545	     -3.70917261	      1.67004718	      0.97140072	      0.12109837	     -6.31053064	      5.28111551	      9.16057173	      7.48162027	      0.13057891	     10.77787987	     -9.12951222	     -7.06968177	     -5.91448370	     -4.70725421	     -1.21274879	     14.94427022	      0.26082672	     14.63263769	    -11.15334029	     -7.06968177	    -15.62376483	      5.68936420	     -2.52694737	     59.73794231	      3.08682679	     64.49481314	    124.34385129	     94.41906647	     52.08382106	      2.22706809	     64.91730267	    122.68955534	    103.89711302
      0.05000000	      7.36806560	     -2.59036523	     -3.38156223	      1.66874934	      0.96793396	      0.12020483	     -6.13429799	      5.43425165	      8.65882708	      8.06730404	      0.14080102	     11.23932729	     -8.86718774	     -7.12657780	     -6.01655037	     -5.01461655	     -1.29641497	     14.38978756	      0.25114917	     15.18202952	    -11.17625741	     -7.12657780	    -15.80520305	      5.93114385	     -3.06965218	     59.86016512	      4.39775082	     64.67119046	    123.78848099	     93.18244244	     52.65608783	      2.12405169	     64.90140198	    123.00171953	    102.04487936
      0.06666670	      7.31445958	     -2.65544037	     -3.40875992	      1.66762649	      0.97113839	      0.12013843	     -5.78133468	      5.55599206	      8.16236456	      8.72430290	      0.15226781	     11.71705729	     -8.51555749	     -7.15298269	     -5.81816149	     -5.25570144	     -1.56357156	     14.63583290	      0.25544347	     15.64362708	    -11.02572077	     -7.15298269	    -16.03501699	      6.10063064	     -3.33010527	     59.58965017	      4.89486944	     65.60304281	    123.84621008	     93.35760632	     52.64285391	      1.94171409	     64.68685947	    123.00511429	    101.26152929
      0.08333330	      6.61190040	     -2.63028375	     -3.41837252	      1.66678448	      0.97083825	      0.12002344	     -4.60279329	      5.57969286	      7.42135685	      9.62925268	      0.16806216	     12.17885297	     -7.97196704	     -7.26357203	     -4.62402762	     -5.54749511	     -2.07241648	     15.26037522	      0.26634379	     16.45227898	    -10.69657073	     -7.26357203	    -15.60442690	      6.18971125	     -3.48963448	     59.02743967	      5.19233156	     66.16944850	    123.94103871	     97.21340768	     52.39792853	      1.93899603	     64.41188870	    123.09416105	    105.94810789
      0.10000000	      5.85307530	     -2.55181023	     -3.55111393	      1.66617129	      0.97010556	      0.11982621	     -3.32664653	      5.51357646	      6.69852581	     10.61714428	      0.18530412	     12.59866576	     -7.47094921	     -7.37341055	     -3.41475486	     -5.70882657	     -2.56220779	     15.92215119	      0.27789396	     16.91735822	    -10.61360274	     -7.37341055	    -15.05091458	      6.24240091	     -3.44813645	     58.57432770	      5.30768006	     66.63644501	    124.14790098	     96.81844126	     52.14883597	      1.97130990	     64.32667622	    123.21408189	    105.51226166
      0.11666670	      5.12823824	     -2.46438841	     -3.68423544	      1.66196193	      0.96953917	      0.12228310	     -2.03539481	      5.50145009	      6.12629604	     11.65392814	      0.20339942	     12.78281075	     -7.28449846	     -7.37694046	     -2.13571070	     -5.91091744	     -3.20259819	     16.76618074	      0.29262506	     17.40634641	    -10.15767335	     -7.37694046	    -14.67300709	      6.23171040	     -3.18005612	     58.27393284	      5.34431378	     67.03948226	    124.17572402	     96.79352387	     52.28388679	      2.03208148	     64.78731418	    123.50409049	    105.48978105
      0.13333330	      4.58369214	     -2.34252667	     -3.79673291	      1.66196155	      0.96879412	      0.12210025	     -1.05143976	      5.44343541	      5.60042281	     12.49861734	      0.21814202	     12.90936051	     -6.97642224	     -7.38570616	     -1.18997259	     -5.98606666	     -3.74902743	     17.44762211	      0.30451845	     17.47697828	     -9.99048387	     -7.38570616	    -14.27904947	      6.17094821	     -2.91358911	     57.98778868	      5.38378844	     67.00485580	    123.84660496	     95.45234806	     52.28881321	      2.14861097	     64.99448152	    123.55215451	    103.43907774
      0.15000000	      4.36015562	     -2.20950200	     -4.00247780	      1.66166851	      0.97198417	      0.12264963	     -0.53003128	      5.34521700	      5.37026516	     13.18964902	      0.23020280	     13.07695151	     -6.76269957	     -7.39982764	     -0.77861375	     -5.98878347	     -4.43417382	     17.89244694	      0.31228211	     17.38033755	     -9.70806984	     -7.39982764	    -14.28010031	      6.07481715	     -2.51354693	     57.79007447	      5.21534867	     67.36684431	    123.85708204	     94.17119473	     52.18625739	      2.26574459	     65.18334211	    123.33700928	    103.75420554
      0.16666670	      4.04036767	     -2.11697054	     -4.25976637	      1.66183491	      0.97101963	      0.12297425	     -0.00423355	      5.35599966	      5.58026550	     13.68115757	      0.23878125	     12.91401522	     -7.08657388	     -7.43419938	     -0.32853345	     -6.06821299	     -5.13957552	     18.18462169	      0.31738152	     17.39392345	     -9.24579384	     -7.43419938	    -14.03087551	      5.96131931	     -2.24395499	     57.28707030	      5.02473672	     67.45852735	    123.88237686	     94.66942043	     51.74116895	      2.05891491	     65.16900460	    123.32431552	    104.88892118
      0.18333330	      3.79214120	     -2.02260165	     -4.35876018	      1.66198900	      0.96757038	      0.12288700	      0.35335170	      5.34597247	      5.70336188	     14.00097770	      0.24436316	     12.93945693	     -7.09434061	     -7.44363412	      0.00494528	     -6.06420305	     -5.46416024	     18.43219585	      0.32170251	     17.20833588	     -9.17354715	     -7.44363412	    -13.65050588	      5.89949896	     -2.05630394	     57.08393159	      4.93122680	     67.31389916	    123.96872064	     92.96734102	     51.56437235	      2.12287223	     65.27381668	    123.57882463	    102.36614001
      0.20000000	      3.52197082	     -1.93512001	     -4.48646387	      1.66218332	      0.96666401	      0.12305292	      0.68299417	      5.33084775	      5.89814141	     14.21887558	      0.24816619	     12.89990907	     -7.34450137	     -7.44696711	      0.32812273	     -6.08137581	     -5.77726486	     18.59708999	      0.32458045	     17.21667361	     -9.00336154	     -7.44696711	    -13.27097996	      5.82478959	     -1.89195285	     57.06445630	      4.94512157	     67.22134717	    124.00592054	     94.09035476	     51.68444541	      2.26417508	     65.57329239	    124.49113501	    104.29113237
      0.21666670	      3.07672840	     -1.87035230	     -4.55756392	      1.66260683	      0.96628534	      0.12329416	      1.14959827	      5.31641484	      5.88048791	     14.38467746	      0.25105998	     13.07749169	     -7.05463569	     -7.45229004	      0.83207262	     -6.12544180	     -5.97314423	     18.73128238	      0.32692255	     17.19701510	     -8.92911861	     -7.45229004	    -12.62322825	      5.76902355	     -1.83063064	     56.69719965	      4.83378637	     67.38066971	    124.17849859	     92.50742958	     51.37202133	      2.28728971	     66.26655663	    125.49769064	    101.75231274
      0.23333330	      3.25016781	     -1.77237435	     -4.54815071	      1.66248889	      0.96609593	      0.12345880	      0.90776290	      5.26219748	      6.25968670	     14.47343663	      0.25260912	     13.07241689	     -7.54101998	     -7.46852477	      0.53643340	     -6.00459990	     -6.21797578	     18.80211661	      0.32815884	     16.86594108	     -8.67214089	     -7.46852477	    -12.70123077	      5.76841281	     -1.85934138	     56.99040351	      4.93883839	     67.32691595	    123.85261057	     94.26144649	     51.42101130	      2.31946772	     66.18267506	    126.15744583	    104.45055689
      0.25000000	      3.30400424	     -1.72377108	     -4.54480181	      1.66255828	      0.96615386	      0.12371102	      0.71237594	      5.25168217	      6.59388886	     14.37513189	      0.25089338	     13.13732688	     -7.80223141	     -7.48541812	      0.29930837	     -5.91467781	     -6.30023101	     18.81150984	      0.32832278	     16.54009768	     -8.47366057	     -7.48541812	    -12.61102965	      5.73324128	     -1.79563521	     56.94992002	      4.86105738	     67.25835088	    123.72020174	     94.46650750	     51.33254681	      2.35836066	     66.18353426	    126.32239677	    103.92378433
      0.26666670	      3.30166673	     -1.71463901	     -4.47581504	      1.66258053	      0.96028705	      0.12385833	      0.64287997	      5.29069128	      6.78995481	     14.33565994	      0.25020447	     13.23068257	     -7.94060304	     -7.48649291	      0.24163859	     -5.88511404	     -6.20784123	     18.88492210	      0.32960407	     16.54028096	     -8.47306726	     -7.48649291	    -12.29833937	      5.78657628	     -1.88520403	     57.35426912	      5.14809947	     66.67082205	    123.55182541	     93.55734078	     51.69772155	      2.64693050	     66.00075047	    126.59964429	    102.30628318
      0.28333330	      3.32774939	     -1.68601668	     -4.36927863	      1.66251293	      0.96081200	      0.12393979	      0.56894685	      5.29358551	      6.97132972	     14.34651612	      0.25039394	     13.36099427	     -8.05793178	     -7.48744123	      0.16205131	     -5.82127761	     -6.11468145	     18.94883930	      0.33071964	     16.40297556	     -8.46971810	     -7.48744123	    -12.14315092	      5.81231951	     -1.92818087	     57.56448068	      5.25707473	     66.48921925	    123.50354039	     92.81494555	     51.94561228	      2.76651049	     66.11163423	    126.72408213	    101.46735157
      0.30000000	      3.48170359	     -1.67015954	     -4.29542922	      1.66248247	      0.96080737	      0.12402816	      0.31624136	      5.29350685	      7.19698074	     14.27114329	      0.24907844	     13.43175755	     -8.25478508	     -7.48807578	     -0.10885533	     -5.74593015	     -6.02563868	     18.96697826	      0.33103622	     16.16641416	     -8.42073775	     -7.48807578	    -12.16576461	      5.84445141	     -1.89590913	     57.57333700	      5.16356579	     66.56661738	    123.62855289	     92.53514246	     51.82155394	      2.81526257	     66.38029160	    126.99745094	    101.41881115
